<?xml version="1.0" standalone="no"?>
<!DOCTYPE svg PUBLIC "-//W3C//DTD SVG 20010904//EN"
 "http://www.w3.org/TR/2001/REC-SVG-20010904/DTD/svg10.dtd">
<svg version="1.0" xmlns="http://www.w3.org/2000/svg"
 width="270.000000pt" height="270.000000pt" viewBox="0 0 270.000000 270.000000"
 preserveAspectRatio="xMidYMid meet">
<metadata>
Created by potrace 1.14, written by Peter Selinger 2001-2017
</metadata>
<g transform="translate(0.000000,270.000000) scale(0.100000,-0.100000)"
fill="#000000" stroke="none">
<path d="M1994 2691 c3 -5 -3 -11 -13 -14 -14 -3 -18 -11 -14 -26 5 -20 37
-29 46 -13 2 4 2 0 -1 -8 -2 -8 -5 -21 -5 -28 0 -9 -8 -11 -22 -8 -26 7 -83
-38 -64 -50 9 -5 6 -10 -9 -15 -12 -5 -22 -15 -22 -24 0 -8 -4 -15 -10 -15 -5
0 -10 -5 -10 -11 0 -5 5 -7 10 -4 6 3 10 1 10 -5 0 -6 -7 -13 -15 -16 -11 -5
-12 -10 -4 -26 6 -11 8 -23 4 -26 -6 -7 -10 -8 -36 -11 -6 0 -8 -10 -4 -23 6
-17 4 -20 -9 -15 -13 5 -18 -1 -23 -24 -4 -19 -14 -34 -29 -39 -12 -5 -26 -19
-30 -32 -4 -13 -14 -28 -22 -34 -9 -6 -13 -20 -10 -31 3 -11 -3 -35 -13 -54
-10 -19 -23 -45 -29 -58 -8 -19 -13 -21 -25 -11 -8 7 -20 8 -27 4 -16 -10 -88
-12 -88 -3 0 4 -11 9 -24 11 -15 3 -27 -2 -35 -14 -11 -17 -33 -26 -29 -10 1
4 -3 17 -10 30 -10 17 -21 22 -56 22 -57 0 -103 -17 -109 -41 -3 -10 -10 -19
-17 -19 -6 0 -9 4 -6 9 12 19 -74 0 -133 -29 -48 -24 -77 -32 -127 -33 -49 -1
-63 -4 -61 -16 1 -7 -4 -16 -12 -19 -10 -3 -11 2 -6 19 10 32 10 29 -4 77 -8
29 -20 47 -37 54 -13 6 -24 15 -24 21 0 20 -42 67 -61 67 -10 0 -18 3 -17 8 1
4 -2 22 -6 41 -6 23 -11 30 -16 20 -5 -7 -6 -18 -3 -24 4 -5 2 -6 -2 -2 -5 4
-10 26 -11 49 -2 27 -9 47 -20 55 -10 7 -15 13 -11 13 4 0 -13 20 -38 44 -26
26 -43 51 -39 59 2 7 -2 20 -11 27 -8 7 -15 18 -15 25 0 15 -23 36 -42 39 -35
5 -76 29 -71 42 5 15 23 15 36 -1 5 -6 7 -4 5 5 -5 16 -58 48 -73 44 -5 -1
-19 -5 -30 -10 -11 -4 -26 -8 -33 -8 -8 -1 -19 -10 -25 -21 -7 -11 -19 -20
-27 -20 -9 0 -16 -10 -17 -25 0 -14 -2 -29 -4 -35 -1 -5 -3 -14 -4 -20 -7 -39
-19 -65 -29 -65 -18 0 -34 -42 -25 -65 11 -29 11 -55 -1 -55 -5 0 -10 7 -10
15 0 31 -35 -20 -38 -55 -1 -19 -7 -36 -12 -38 -16 -6 -11 -32 5 -32 8 0 15
-5 15 -11 0 -5 -4 -7 -10 -4 -13 8 -13 -17 0 -33 6 -6 7 -10 3 -7 -12 9 -32
-32 -38 -76 -4 -24 -11 -53 -16 -64 -7 -13 -7 -36 -1 -63 6 -23 8 -51 5 -62
-3 -11 -2 -28 2 -37 16 -38 14 -40 -29 -32 -55 11 -56 11 -56 -4 0 -8 -7 -14
-15 -14 -8 0 -12 4 -9 9 11 17 -9 7 -27 -14 -15 -16 -19 -37 -19 -90 0 -42 4
-68 11 -68 6 0 13 9 16 20 3 11 13 20 22 20 14 0 14 -2 1 -10 -8 -5 -11 -12
-8 -15 7 -8 88 35 88 46 0 4 7 10 15 13 11 4 15 0 13 -12 -3 -14 6 -17 55 -19
31 -1 57 3 57 8 0 5 8 9 18 9 10 0 22 3 26 8 4 4 13 7 19 7 18 0 15 45 -5 70
-10 13 -18 35 -18 49 0 20 -5 26 -22 26 -19 0 -20 2 -8 10 13 9 12 13 -5 27
-13 10 -15 14 -4 10 17 -6 19 18 4 43 -12 19 -15 40 -7 38 4 -1 15 2 25 6 22
10 23 46 0 46 -14 0 -13 4 6 21 20 18 22 29 18 64 -4 23 -2 46 2 51 5 5 11 26
14 46 4 27 2 38 -10 42 -12 5 -8 14 21 42 25 24 36 44 36 64 0 16 5 32 11 35
6 4 8 13 5 20 -2 7 7 18 20 25 17 10 22 19 18 32 -4 14 0 18 21 18 24 0 26 -3
21 -27 -7 -34 6 -58 28 -50 11 5 16 1 16 -13 0 -11 5 -20 10 -20 7 0 8 -6 2
-16 -11 -19 -1 -40 41 -95 15 -20 27 -43 27 -52 0 -10 5 -17 11 -17 5 0 9 -8
7 -17 -3 -21 21 -83 32 -83 13 0 81 -74 92 -100 6 -14 12 -43 13 -65 5 -62 9
-73 35 -95 27 -23 80 -29 73 -7 -2 4 7 7 20 7 13 0 27 4 33 10 6 6 34 6 76 0
63 -9 74 -8 174 25 58 19 117 41 131 50 27 18 56 15 142 -16 86 -31 194 -26
234 11 10 10 25 16 31 14 29 -11 136 54 136 83 0 7 4 13 9 13 9 0 31 83 36
135 1 11 7 19 13 18 7 -2 9 4 5 14 -4 11 -3 14 5 9 7 -4 15 0 19 11 4 10 15
24 25 31 10 7 18 24 18 37 0 13 4 26 10 30 5 3 7 12 3 20 -3 8 -1 15 5 15 13
0 23 38 11 46 -13 8 -11 24 4 22 7 -2 16 14 21 40 6 23 15 42 22 42 7 0 14 12
16 26 3 26 48 57 48 34 0 -6 -9 -10 -21 -10 -16 0 -19 -4 -14 -22 13 -47 28
-78 36 -78 5 0 8 -6 6 -12 -1 -8 7 -12 18 -11 17 2 20 -4 19 -38 -2 -56 6 -89
21 -89 7 0 15 -7 19 -15 3 -8 1 -15 -3 -15 -5 0 -11 6 -14 13 -2 6 -7 9 -11 6
-10 -9 24 -69 40 -69 17 0 19 -27 2 -33 -10 -3 -9 -12 5 -37 9 -17 17 -40 17
-51 0 -10 5 -19 11 -19 7 0 8 -7 4 -17 -15 -36 -8 -105 13 -125 21 -22 105
-35 126 -20 6 4 21 7 34 6 12 0 22 3 22 9 0 6 5 5 13 -1 16 -14 87 1 102 22
18 24 79 31 99 10 17 -17 17 -18 -2 -33 -26 -21 -35 -50 -21 -68 9 -11 8 -16
-6 -27 -11 -8 -16 -20 -12 -30 4 -9 1 -28 -5 -41 -9 -21 -8 -28 4 -38 9 -6 18
-21 20 -32 2 -12 14 -21 35 -26 l33 -6 -1 170 c0 119 -3 175 -12 186 -9 12 -9
13 1 7 9 -5 12 3 12 32 0 42 -8 49 -61 58 -16 3 -31 -1 -39 -11 -7 -8 -17 -12
-22 -9 -9 6 -86 -23 -98 -36 -3 -3 -16 -6 -30 -7 -14 0 -40 -3 -57 -6 -36 -7
-54 11 -46 44 3 11 1 19 -4 19 -6 0 -9 12 -7 28 2 16 -7 42 -21 64 -14 21 -25
45 -25 53 0 9 -7 18 -15 21 -8 4 -12 11 -9 16 4 6 -3 5 -15 -1 -17 -10 -20 -9
-14 5 5 14 3 15 -18 5 -23 -12 -23 -12 -4 4 l20 16 -20 16 c-19 15 -19 15 5
10 14 -4 32 -2 39 3 13 7 13 11 0 26 -8 9 -13 26 -11 36 4 24 -24 68 -43 68
-8 0 -15 3 -16 8 0 4 -3 25 -6 47 -2 22 -6 53 -7 68 -1 16 -8 32 -16 37 -10 7
-11 10 -2 10 10 0 10 4 0 20 -11 17 -24 20 -91 20 -43 0 -76 -4 -73 -9z
m-1564 -111 c0 -5 -2 -10 -4 -10 -3 0 -8 5 -11 10 -3 6 -1 10 4 10 6 0 11 -4
11 -10z m24 -36 c3 -8 2 -12 -4 -9 -6 3 -10 10 -10 16 0 14 7 11 14 -7z m-144
-145 c0 -5 5 -7 10 -4 6 3 10 1 10 -5 0 -7 -7 -9 -17 -6 -9 4 -20 1 -25 -6 -6
-10 -8 -9 -8 3 0 9 3 19 7 22 10 10 23 8 23 -4z m380 -153 c0 -11 -19 -15 -25
-6 -3 5 1 10 9 10 9 0 16 -2 16 -4z m1640 -236 c0 -5 -4 -10 -10 -10 -5 0 -10
5 -10 10 0 6 5 10 10 10 6 0 10 -4 10 -10z m-2230 -255 c0 -2 -10 -10 -22 -16
-21 -11 -22 -11 -9 4 13 16 31 23 31 12z"/>
<path d="M0 1611 c0 -12 5 -21 10 -21 6 0 10 6 10 14 0 8 -4 18 -10 21 -5 3
-10 -3 -10 -14z"/>
<path d="M0 1518 c0 -32 4 -58 10 -58 6 0 10 7 10 15 0 8 5 15 10 15 12 0 10
69 -2 76 -4 3 -8 -1 -8 -8 0 -9 -3 -9 -10 2 -7 11 -10 -2 -10 -42z"/>
<path d="M2686 1531 c-4 -5 -3 -16 0 -25 3 -8 2 -21 -2 -28 -4 -6 -9 -21 -10
-32 -1 -12 -6 -33 -9 -48 -6 -22 -4 -28 8 -28 9 0 18 -8 20 -17 3 -10 5 28 6
85 1 98 -1 113 -13 93z"/>
<path d="M1924 1511 c-21 -13 -35 -16 -42 -9 -12 12 -120 -55 -129 -80 -12
-32 -41 -63 -46 -50 -3 7 -6 1 -6 -14 -1 -15 -5 -29 -10 -33 -16 -9 -7 -121
12 -139 23 -24 73 -27 69 -5 -1 9 5 20 14 23 9 3 14 13 10 21 -3 8 -1 17 5 21
5 3 7 15 3 26 -5 17 -3 20 11 14 12 -4 31 6 61 34 24 22 50 40 58 40 8 0 16 4
18 9 7 20 45 -10 68 -55 17 -35 23 -63 22 -96 -1 -35 2 -48 12 -48 8 0 16 -7
20 -15 7 -18 45 -19 69 -1 13 10 16 24 14 55 -2 29 1 45 11 50 13 7 13 12 -1
40 -8 17 -11 31 -6 31 6 0 5 7 0 18 -6 9 -12 30 -16 45 -3 15 -10 25 -15 22
-6 -3 -7 1 -4 9 3 9 1 16 -5 16 -6 0 -11 6 -11 14 0 7 -8 20 -17 27 -15 12
-16 12 -10 -4 4 -10 3 -16 -2 -12 -5 3 -12 -1 -14 -7 -3 -7 -6 -4 -6 8 -2 52
-83 79 -137 45z m86 -51 c0 -5 -7 -10 -15 -10 -8 0 -15 5 -15 10 0 6 7 10 15
10 8 0 15 -4 15 -10z"/>
<path d="M830 1429 c0 -3 -9 -9 -20 -12 -11 -3 -20 -1 -20 5 0 5 -8 7 -18 4
-10 -4 -40 -8 -68 -10 -68 -6 -104 -16 -104 -30 0 -6 -15 -18 -32 -27 -18 -8
-35 -26 -38 -38 -3 -12 -8 -21 -12 -19 -10 5 -45 -46 -41 -59 3 -7 0 -13 -6
-13 -26 0 1 -145 33 -178 16 -17 71 -24 100 -12 33 12 35 86 3 113 -16 14 -18
17 -5 13 10 -3 17 -2 15 2 -4 14 65 76 86 77 12 1 33 6 47 12 48 20 93 32 101
28 4 -3 10 -23 14 -46 4 -22 14 -43 22 -46 8 -3 12 -12 9 -19 -3 -8 -2 -14 3
-14 5 0 8 -8 7 -17 -1 -12 6 -18 21 -17 12 0 19 -4 16 -9 -4 -6 1 -8 11 -4 10
4 23 7 30 7 7 0 22 18 35 39 20 38 21 42 6 77 -8 20 -15 47 -15 59 0 12 -7 28
-15 35 -9 7 -14 19 -11 27 7 18 -29 53 -55 53 -13 0 -18 4 -13 12 5 8 2 9 -11
5 -9 -4 -23 -3 -29 1 -13 11 -46 12 -46 1z"/>
<path d="M0 1113 c0 -96 4 -153 10 -153 6 0 10 6 10 13 0 6 13 19 29 28 20 12
31 29 40 63 12 47 3 86 -19 86 -6 0 -10 9 -10 19 0 11 -4 22 -10 26 -5 3 -7
12 -3 20 3 8 0 15 -7 15 -7 0 -19 8 -26 18 -11 14 -13 -7 -14 -135z"/>
<path d="M2654 1188 c-17 -26 -29 -58 -31 -81 -1 -32 3 -40 24 -48 51 -19 53
-16 53 81 0 50 -4 90 -9 90 -4 0 -21 -19 -37 -42z"/>
<path d="M0 470 l0 -470 354 0 c348 1 355 1 351 21 -5 24 -43 79 -55 79 -5 0
-11 13 -15 29 -5 22 -14 31 -36 36 -16 4 -29 11 -29 16 0 6 -5 7 -10 4 -6 -3
-10 0 -11 7 -4 93 -23 128 -98 183 -22 17 -41 37 -41 46 0 23 -24 41 -45 32
-14 -5 -17 -3 -12 10 4 12 -2 21 -23 32 -17 9 -29 19 -28 23 3 14 -37 72 -55
78 -22 7 -97 79 -97 94 0 9 -14 14 -32 11 -5 0 -8 8 -8 18 0 11 -16 32 -35 47
-37 28 -44 44 -20 44 20 0 20 68 -1 95 -8 11 -17 19 -19 18 -12 -7 -26 -2 -20
7 3 6 1 10 -4 10 -8 0 -11 -146 -11 -470z m460 -190 c0 -5 -9 -10 -20 -10 -11
0 -20 5 -20 10 0 6 9 10 20 10 11 0 20 -4 20 -10z m50 -11 c0 -14 -17 -10 -23
5 -4 10 -1 13 9 9 7 -3 14 -9 14 -14z m84 -204 c-4 -8 -1 -15 5 -15 6 0 11 -5
11 -11 0 -8 -5 -8 -15 1 -17 14 -20 40 -5 40 5 0 7 -7 4 -15z"/>
<path d="M2682 853 c-5 -12 -20 -19 -46 -20 -21 -2 -63 -14 -92 -27 -30 -14
-56 -21 -59 -15 -4 5 -11 9 -16 9 -6 0 -7 -4 -4 -10 3 -5 0 -10 -8 -10 -13 0
-25 -16 -32 -42 -2 -5 -4 -9 -5 -10 -1 -2 -4 -15 -6 -30 -3 -34 24 -52 64 -44
15 3 43 7 62 8 19 1 46 8 59 14 13 7 29 10 36 8 6 -3 18 2 25 11 7 8 19 15 26
15 11 0 14 19 14 80 0 80 -4 95 -18 63z"/>
<path d="M847 833 c-13 -3 -17 -12 -14 -32 3 -16 1 -34 -3 -41 -5 -7 -5 -20 0
-29 4 -9 14 -29 21 -46 7 -16 19 -37 25 -45 7 -8 17 -34 23 -57 8 -29 17 -43
29 -44 10 0 12 -3 5 -6 -10 -3 -9 -8 2 -20 8 -8 13 -19 10 -24 -3 -4 5 -11 18
-14 13 -4 31 -21 40 -38 56 -108 132 -196 170 -198 12 0 46 -2 76 -5 36 -3 57
0 62 8 6 9 11 9 23 -1 12 -10 21 -10 46 3 17 8 38 12 46 9 17 -6 104 18 104
29 0 4 11 8 25 8 58 0 175 79 175 118 0 12 3 13 11 5 9 -9 22 -4 51 19 25 21
35 35 28 42 -6 6 -2 13 13 20 29 15 80 113 75 147 -3 18 2 30 14 38 22 14 23
50 3 77 -14 18 -16 17 -19 -6 0 -5 -5 -10 -11 -9 -5 0 -9 9 -8 20 2 11 -3 19
-11 19 -21 0 -46 -11 -46 -21 0 -4 -11 -20 -25 -35 -14 -15 -23 -30 -20 -33 4
-3 10 1 14 8 5 8 11 9 15 3 3 -6 -8 -15 -24 -21 -17 -5 -30 -14 -29 -18 4 -20
-15 -73 -26 -73 -16 0 -46 -34 -49 -57 -2 -12 -23 -26 -64 -42 -46 -18 -62
-29 -67 -48 -5 -20 -11 -24 -38 -22 -18 1 -39 -1 -47 -5 -21 -8 -153 -26 -158
-21 -3 2 -17 -2 -33 -11 -23 -12 -29 -12 -29 -1 0 7 -15 17 -32 22 -18 6 -38
20 -44 33 -16 33 -22 36 -39 22 -8 -7 -15 -8 -15 -2 0 5 7 12 15 16 23 9 18
35 -9 42 -13 3 -34 16 -46 29 -13 14 -29 21 -41 18 -20 -6 -28 20 -10 31 11 7
2 46 -10 46 -5 0 -9 7 -9 16 0 9 -15 31 -32 49 -18 18 -44 52 -57 76 -23 41
-39 60 -51 58 -3 -1 -13 -3 -23 -6z m820 -395 c-3 -8 -6 -5 -6 6 -1 11 2 17 5
13 3 -3 4 -12 1 -19z m-577 -49 c0 -5 -4 -9 -8 -9 -5 0 -9 7 -9 15 0 8 4 12 9
9 4 -3 8 -9 8 -15z m130 -14 c0 -8 -2 -15 -4 -15 -2 0 -6 7 -10 15 -3 8 -1 15
4 15 6 0 10 -7 10 -15z"/>
<path d="M1345 830 c-11 -4 -25 -5 -31 -3 -7 2 -23 -6 -36 -19 -14 -13 -34
-31 -46 -40 -26 -21 -28 -44 -7 -85 15 -31 50 -49 61 -32 6 11 43 5 72 -10 32
-17 114 -13 142 6 33 23 50 45 43 58 -4 5 -3 7 1 3 4 -3 16 2 27 13 43 43 -6
93 -93 94 -46 1 -66 -13 -52 -36 3 -5 0 -9 -6 -9 -8 0 -10 9 -6 24 5 20 1 26
-22 34 -15 5 -36 6 -47 2z m61 -187 c-11 -11 -17 4 -9 23 7 18 8 18 11 1 2
-10 1 -21 -2 -24z"/>
<path d="M2643 274 c-7 -20 18 -38 29 -21 11 18 10 24 -7 31 -9 3 -18 -1 -22
-10z"/>
<path d="M2624 216 c4 -18 3 -25 -6 -24 -6 2 -14 -6 -16 -16 -2 -11 -11 -26
-19 -34 -16 -17 -14 -54 5 -60 6 -2 12 4 12 14 0 26 11 10 14 -21 2 -18 0 -23
-7 -16 -7 7 -16 4 -29 -11 -27 -31 -18 -43 36 -46 l47 -3 -3 50 c-2 30 -8 53
-16 56 -10 4 -10 9 -1 27 9 16 9 23 1 26 -7 2 -3 14 10 33 24 32 23 33 -11 44
-22 7 -23 5 -17 -19z"/>
</g>
</svg>
